<svg width="112" height="17" viewBox="0 0 112 17" fill="none" xmlns="http://www.w3.org/2000/svg">
<path d="M5.712 16.288C4.688 16.288 3.688 16.064 2.712 15.616C1.752 15.168 0.888 14.416 0.12 13.36L2.472 11.512C2.888 12.12 3.4 12.6 4.008 12.952C4.632 13.304 5.28 13.48 5.952 13.48C6.624 13.48 7.168 13.32 7.584 13C8 12.68 8.208 12.24 8.208 11.68C8.208 11.264 8.04 10.928 7.704 10.672C7.384 10.4 6.944 10.088 6.384 9.736L4.896 8.824C4.176 8.376 3.608 7.856 3.192 7.264C2.776 6.656 2.568 5.872 2.568 4.912C2.568 4.24 2.712 3.616 3 3.04C3.288 2.448 3.672 1.936 4.152 1.504C4.648 1.056 5.232 0.704 5.904 0.448C6.576 0.191999 7.296 0.0639992 8.064 0.0639992C8.992 0.0639992 9.864 0.279999 10.68 0.711999C11.496 1.144 12.208 1.72 12.816 2.44L10.728 4.384C10.328 3.968 9.904 3.624 9.456 3.352C9.008 3.064 8.496 2.92 7.92 2.92C7.28 2.92 6.784 3.088 6.432 3.424C6.096 3.744 5.928 4.136 5.928 4.6C5.928 5 6.104 5.328 6.456 5.584C6.808 5.84 7.288 6.16 7.896 6.544L9.432 7.48C10.2 7.944 10.752 8.456 11.088 9.016C11.44 9.56 11.616 10.288 11.616 11.2C11.616 11.92 11.472 12.592 11.184 13.216C10.912 13.824 10.52 14.36 10.008 14.824C9.496 15.272 8.872 15.632 8.136 15.904C7.416 16.16 6.608 16.288 5.712 16.288ZM14.5511 16L15.1031 0.352H18.4631L17.9591 7.864C17.8791 8.696 17.7991 9.536 17.7191 10.384C17.6551 11.216 17.5751 12.048 17.4791 12.88H17.5751C17.8951 12.048 18.2311 11.208 18.5831 10.36C18.9511 9.512 19.2951 8.68 19.6151 7.864L22.8311 0.352H25.6151L25.6631 7.864C25.6471 8.68 25.6231 9.512 25.5911 10.36C25.5591 11.192 25.5271 12.032 25.4951 12.88H25.5911C25.8791 12.032 26.1751 11.192 26.4791 10.36C26.7831 9.512 27.0711 8.68 27.3431 7.864L29.9831 0.352H33.1271L27.0551 16H22.9031L22.9991 8.512C22.9991 8 23.0151 7.416 23.0471 6.76C23.0951 6.104 23.1511 5.472 23.2151 4.864H23.1191C22.8951 5.456 22.6551 6.064 22.3991 6.688C22.1591 7.296 21.9271 7.904 21.7031 8.512L18.6311 16H14.5511ZM32.4298 16L35.5738 0.352H38.8618L35.7418 16H32.4298ZM39.4845 16L42.6285 0.352H51.8925L51.3645 3.112H45.3405L44.5965 6.952H49.6845L49.1565 9.712H44.0445L42.7965 16H39.4845ZM54.4823 16L57.0263 3.136H52.9223L53.4503 0.352H64.9703L64.4183 3.136H60.3143L57.7703 16H54.4823ZM68.1729 16.288C67.1489 16.288 66.1489 16.064 65.1729 15.616C64.2129 15.168 63.3489 14.416 62.5809 13.36L64.9329 11.512C65.3489 12.12 65.8609 12.6 66.4689 12.952C67.0929 13.304 67.7409 13.48 68.4129 13.48C69.0849 13.48 69.6289 13.32 70.0449 13C70.4609 12.68 70.6689 12.24 70.6689 11.68C70.6689 11.264 70.5009 10.928 70.1649 10.672C69.8449 10.4 69.4049 10.088 68.8449 9.736L67.3569 8.824C66.6369 8.376 66.0689 7.856 65.6529 7.264C65.2369 6.656 65.0289 5.872 65.0289 4.912C65.0289 4.24 65.1729 3.616 65.4609 3.04C65.7489 2.448 66.1329 1.936 66.6129 1.504C67.1089 1.056 67.6929 0.704 68.3649 0.448C69.0369 0.191999 69.7569 0.0639992 70.5249 0.0639992C71.4529 0.0639992 72.3249 0.279999 73.1409 0.711999C73.9569 1.144 74.6689 1.72 75.2769 2.44L73.1889 4.384C72.7889 3.968 72.3649 3.624 71.9169 3.352C71.4689 3.064 70.9569 2.92 70.3809 2.92C69.7409 2.92 69.2449 3.088 68.8929 3.424C68.5569 3.744 68.3889 4.136 68.3889 4.6C68.3889 5 68.5649 5.328 68.9169 5.584C69.2689 5.84 69.7489 6.16 70.3569 6.544L71.8929 7.48C72.6609 7.944 73.2129 8.456 73.5489 9.016C73.9009 9.56 74.0769 10.288 74.0769 11.2C74.0769 11.92 73.9329 12.592 73.6449 13.216C73.3729 13.824 72.9809 14.36 72.4689 14.824C71.9569 15.272 71.3329 15.632 70.5969 15.904C69.8769 16.16 69.0689 16.288 68.1729 16.288ZM75.8361 16L78.9801 0.352H82.2681L81.0201 6.424H86.3721L87.5721 0.352H90.8601L87.7401 16H84.4281L85.7961 9.304H80.4441L79.1481 16H75.8361ZM91.4923 16L94.6363 0.352H97.9243L94.8043 16H91.4923ZM98.547 16L101.691 0.352H106.635C107.403 0.352 108.107 0.432 108.747 0.592C109.403 0.736 109.971 0.975999 110.451 1.312C110.931 1.632 111.307 2.056 111.579 2.584C111.851 3.112 111.987 3.752 111.987 4.504C111.987 5.592 111.795 6.52 111.411 7.288C111.027 8.056 110.507 8.688 109.851 9.184C109.195 9.664 108.427 10.016 107.547 10.24C106.683 10.464 105.755 10.576 104.763 10.576H102.915L101.859 16H98.547ZM103.467 7.96H105.123C106.291 7.96 107.187 7.712 107.811 7.216C108.435 6.72 108.747 5.976 108.747 4.984C108.747 4.28 108.515 3.768 108.051 3.448C107.603 3.128 106.955 2.968 106.107 2.968H104.427L103.467 7.96Z" fill="white"/>
</svg>
